<?xml version="1.0" standalone="no"?>
<!DOCTYPE svg PUBLIC "-//W3C//DTD SVG 20010904//EN"
 "http://www.w3.org/TR/2001/REC-SVG-20010904/DTD/svg10.dtd">
<svg version="1.0" xmlns="http://www.w3.org/2000/svg"
 width="512.000000pt" height="512.000000pt" viewBox="0 0 512.000000 512.000000"
 preserveAspectRatio="xMidYMid meet">

<g transform="translate(0.000000,512.000000) scale(0.100000,-0.100000)"
fill="#000000" stroke="none">
<path d="M1547 4216 c-49 -18 -62 -28 -128 -99 l-55 -60 -55 3 c-29 2 -74 3
-98 2 -99 -3 -195 -85 -226 -193 -18 -68 -52 -109 -87 -109 -39 0 -122 -45
-157 -85 -54 -62 -65 -98 -63 -207 2 -105 6 -98 -76 -164 -18 -14 -45 -47 -60
-73 -23 -39 -27 -57 -27 -121 0 -65 4 -83 32 -137 18 -34 33 -72 33 -84 0 -12
-15 -47 -32 -78 -29 -50 -33 -65 -33 -131 0 -87 19 -135 73 -184 18 -17 46
-43 62 -57 29 -27 29 -28 28 -125 -2 -89 0 -104 24 -149 14 -27 37 -60 50 -71
31 -29 96 -61 141 -69 46 -9 82 -49 90 -103 9 -56 64 -131 120 -166 37 -23 62
-30 120 -34 l72 -5 37 -57 c43 -69 117 -130 195 -162 l58 -23 1320 -3 c935 -2
1339 0 1385 8 379 65 456 577 112 747 l-76 38 -449 3 c-246 1 -447 6 -445 10
71 136 85 208 63 313 -26 126 -95 218 -207 274 -38 19 -92 37 -119 41 -27 4
-49 10 -49 14 0 3 14 32 31 63 25 46 31 69 31 120 0 88 -21 131 -103 209 l-71
66 7 80 c10 105 -9 165 -71 227 -34 34 -61 49 -112 65 -82 26 -107 48 -122
110 -33 138 -163 226 -296 201 -64 -12 -92 0 -148 65 -66 76 -112 98 -206 99
-67 0 -81 -4 -131 -32 -70 -41 -95 -41 -165 -2 -65 37 -156 48 -217 25z m171
-178 c49 -29 66 -33 128 -33 60 0 79 5 132 33 79 41 115 41 150 3 15 -17 42
-46 61 -67 55 -59 105 -76 215 -72 88 3 96 1 119 -21 15 -13 31 -44 37 -71 25
-105 93 -174 201 -205 86 -24 94 -38 94 -159 0 -93 2 -105 29 -154 18 -32 49
-67 77 -88 31 -23 52 -47 59 -70 11 -31 9 -40 -16 -87 -15 -29 -33 -70 -39
-92 -11 -36 -16 -40 -47 -43 l-36 -3 -7 73 c-12 116 -51 255 -104 363 -142
289 -404 492 -720 557 -79 16 -121 19 -241 15 -170 -6 -258 -26 -396 -91 -123
-59 -204 -115 -295 -205 -90 -91 -146 -171 -205 -296 -75 -158 -88 -221 -88
-435 0 -173 2 -191 27 -275 36 -117 84 -218 148 -310 54 -78 202 -228 257
-261 27 -16 32 -23 28 -44 -3 -14 -9 -46 -12 -72 -7 -46 -8 -48 -39 -48 -49 0
-82 33 -101 98 -32 110 -99 176 -206 202 -25 7 -57 23 -70 37 -21 22 -23 32
-20 109 4 123 -9 156 -95 241 -86 86 -89 101 -40 195 27 53 32 72 32 132 0 62
-4 79 -32 128 -18 32 -33 69 -33 82 0 28 19 76 30 76 22 0 100 86 120 132 20
46 22 64 17 134 -7 103 10 137 75 154 132 33 194 95 228 228 17 65 51 81 151
75 111 -8 155 10 240 98 79 82 100 86 187 37z m382 -313 c150 -48 257 -113
363 -219 140 -140 229 -329 251 -534 l7 -63 -33 3 -33 3 -7 68 c-14 142 -76
291 -171 412 -195 250 -541 362 -847 275 -134 -38 -244 -103 -346 -205 -175
-173 -254 -375 -241 -615 7 -128 25 -198 82 -315 53 -109 135 -210 233 -284
l73 -55 -23 -18 c-13 -10 -26 -18 -30 -18 -19 0 -140 105 -196 171 -68 81
-151 236 -177 334 -25 92 -31 303 -11 398 69 338 334 606 671 681 50 11 109
15 210 12 119 -3 152 -7 225 -31z m-133 -200 c270 -51 488 -281 519 -551 l7
-54 -84 0 c-190 -1 -294 -34 -385 -124 -123 -124 -153 -303 -76 -458 l29 -58
-173 0 -172 0 -78 39 c-253 127 -395 416 -340 692 27 134 83 238 180 335 65
65 98 89 166 122 47 22 110 45 140 51 30 6 64 13 75 15 44 8 117 5 192 -9z
m1215 -787 c53 -16 122 -79 143 -130 60 -150 -37 -312 -198 -333 -31 -4 -61
-16 -74 -28 -32 -28 -31 -80 2 -112 l24 -25 592 0 c425 0 603 -3 631 -12 53
-16 122 -79 143 -130 60 -150 -38 -314 -199 -333 -28 -3 -634 -5 -1346 -3
l-1295 3 -40 22 c-52 28 -100 78 -119 125 -33 77 -11 194 47 257 12 13 45 34
72 47 50 24 53 24 408 24 l359 0 30 30 c25 26 29 36 24 63 -8 43 -35 63 -97
71 -173 23 -267 188 -195 342 13 28 39 63 58 77 74 57 66 56 547 57 312 0 455
-3 483 -12z"/>
<path d="M1807 1319 c-20 -12 -197 -359 -197 -388 0 -10 9 -30 21 -45 20 -26
57 -34 94 -20 22 9 195 356 195 393 0 52 -66 87 -113 60z"/>
<path d="M2287 1319 c-20 -12 -197 -359 -197 -388 0 -10 9 -30 21 -45 20 -26
57 -34 94 -20 22 9 195 356 195 393 0 52 -66 87 -113 60z"/>
<path d="M2767 1319 c-20 -12 -197 -359 -197 -388 0 -10 9 -30 21 -45 20 -26
57 -34 94 -20 22 9 195 356 195 393 0 52 -66 87 -113 60z"/>
<path d="M3247 1319 c-20 -12 -197 -359 -197 -388 0 -10 9 -30 21 -45 20 -26
57 -34 94 -20 22 9 195 356 195 393 0 52 -66 87 -113 60z"/>
<path d="M3727 1319 c-20 -12 -197 -359 -197 -388 0 -10 9 -30 21 -45 20 -26
57 -34 94 -20 22 9 195 356 195 393 0 52 -66 87 -113 60z"/>
<path d="M4207 1319 c-20 -12 -197 -359 -197 -388 0 -10 9 -30 21 -45 20 -26
57 -34 94 -20 22 9 195 356 195 393 0 52 -66 87 -113 60z"/>
</g>
</svg>
